<?xml version="1.0" standalone="no"?>
<!DOCTYPE svg PUBLIC "-//W3C//DTD SVG 20010904//EN"
 "http://www.w3.org/TR/2001/REC-SVG-20010904/DTD/svg10.dtd">
<svg version="1.0" xmlns="http://www.w3.org/2000/svg"
 width="500.000000pt" height="500.000000pt" viewBox="0 0 500.000000 500.000000"
 preserveAspectRatio="xMidYMid meet">

<g transform="translate(0.000000,500.000000) scale(0.100000,-0.100000)"
fill="#000000" stroke="none">
<path d="M3592 3281 l-42 -20 2 -183 3 -183 86 -3 c79 -2 91 0 131 24 73 44
93 83 93 178 0 74 -3 84 -28 118 -60 78 -163 107 -245 69z"/>
<path d="M3393 3202 l-42 -17 44 -75 45 -75 0 93 c0 50 -1 92 -2 91 -2 0 -22
-8 -45 -17z"/>
<path d="M3256 3098 c-3 -29 -6 -78 -6 -109 l0 -56 53 -7 c28 -3 63 -6 75 -6
l24 0 -28 48 c-15 26 -46 77 -69 115 l-42 67 -7 -52z"/>
<path d="M3108 3090 l-38 -15 0 -62 0 -62 35 -7 c20 -3 38 -4 41 -1 3 2 4 40
2 84 l-3 79 -37 -16z"/>
<path d="M2913 3013 c-24 -8 -43 -21 -43 -28 0 -8 16 -15 43 -17 23 -3 43 -4
45 -2 2 1 2 15 0 31 l-3 30 -42 -14z"/>
<path d="M2593 2925 c-6 -19 -10 -35 -9 -35 6 0 137 58 143 63 3 4 -23 7 -59
7 l-65 0 -10 -35z"/>
</g>
</svg>
